<svg width="175" height="52" viewBox="0 0 175 52" fill="none" xmlns="http://www.w3.org/2000/svg">
<rect y="11.9097" width="39.6996" height="39.6996" rx="3.96996" fill="url(#paint0_linear_807_1397)"/>
<rect x="15.8809" width="39.6996" height="39.6996" rx="3.96996" fill="url(#paint1_linear_807_1397)"/>
<path d="M75.28 40V11.76H84.8C86.36 11.76 88 11.76 89.64 12.2C92.4 12.96 96.28 15.44 96.28 21.16C96.28 24.92 94.52 28.96 89.48 30.08C87.92 30.44 86.44 30.44 84.72 30.44H80.6V40H75.28ZM84.6 16.28H80.6V26.08H84.4C85.52 26.08 86.48 26.08 87.4 25.84C90.68 25.04 90.88 22.04 90.88 21.04C90.88 18.96 89.96 17.88 89.48 17.44C88.16 16.32 86.32 16.28 84.6 16.28ZM99.6 12.04H104.36V16.88H99.6V12.04ZM99.6 20H104.36V40H99.6V20ZM122.88 11.76H127.64V40H122.88V38.08C121.4 39.88 119.4 40.6 117.32 40.6C112.56 40.6 108.44 37.04 108.44 30.44C108.44 24.48 111.8 19.4 117.52 19.4C119.48 19.4 121.36 19.96 122.88 21.64V11.76ZM122.84 30.12C122.8 28.84 122.64 27 121.76 25.68C121.04 24.6 119.84 23.84 118.24 23.84C115 23.84 113.44 26.76 113.44 29.92C113.44 30.28 113.48 36.28 118.16 36.28C120.64 36.28 122.88 34.44 122.84 30.12ZM146.2 20H151V40H146.2V37.96C145.36 38.76 143.4 40.48 139.72 40.48C136.44 40.48 134.88 39.08 134.16 38.16C132.8 36.44 132.8 34.56 132.8 31.56V20H137.64V31.48C137.64 32.28 137.64 32.96 137.8 33.48C138.32 35.24 139.76 36 141.52 36C143.52 36 144.76 34.92 145.4 33.88C146.12 32.56 146.16 31.28 146.2 28.48V20ZM154.521 37.04L158.081 34.08C159.281 35.56 161.081 36.64 163.841 36.64C166.601 36.64 167.801 35.28 167.801 34.28C167.801 33 166.361 32.68 165.721 32.56C165.041 32.4 161.761 31.8 161.041 31.6C156.281 30.48 155.401 27.72 155.401 25.92C155.401 22.52 158.481 19.4 163.961 19.4C167.001 19.4 169.201 20.36 170.561 21.32C171.561 21.96 172.201 22.64 172.601 23.12L169.201 26.28C168.641 25.2 167.281 23.24 163.761 23.24C161.481 23.24 160.441 24.24 160.441 25.28C160.441 26.72 161.921 27.12 164.481 27.56C168.641 28.32 169.801 28.52 171.081 29.52C172.321 30.48 173.121 32.08 173.121 33.76C173.121 36.88 170.321 40.6 164.121 40.6C160.561 40.6 157.041 39.48 154.521 37.04Z" fill="white"/>
<defs>
<linearGradient id="paint0_linear_807_1397" x1="-4.32105" y1="20.1234" x2="94.5803" y2="36.9317" gradientUnits="userSpaceOnUse">
<stop stop-color="white"/>
<stop offset="1" stop-color="#878787"/>
</linearGradient>
<linearGradient id="paint1_linear_807_1397" x1="18.1652" y1="37.1934" x2="55.3586" y2="-1.38556e-07" gradientUnits="userSpaceOnUse">
<stop stop-color="#2444B8"/>
<stop offset="1" stop-color="#3259DA"/>
</linearGradient>
</defs>
</svg>
